<?xml version="1.0" encoding="UTF-8" standalone="no"?>
<!-- Created with Inkscape (http://www.inkscape.org/) -->

<svg
   version="1.1"
   id="svg1"
   width="2000"
   height="2000"
   viewBox="0 0 2000 2000"
   sodipodi:docname="Arma de Comunicações - EB.svg"
   inkscape:version="1.3.2 (091e20e, 2023-11-25, custom)"
   xmlns:inkscape="http://www.inkscape.org/namespaces/inkscape"
   xmlns:sodipodi="http://sodipodi.sourceforge.net/DTD/sodipodi-0.dtd"
   xmlns="http://www.w3.org/2000/svg"
   xmlns:svg="http://www.w3.org/2000/svg">
  <defs
     id="defs1" />
  <sodipodi:namedview
     id="namedview1"
     pagecolor="#505050"
     bordercolor="#eeeeee"
     borderopacity="1"
     inkscape:showpageshadow="0"
     inkscape:pageopacity="0"
     inkscape:pagecheckerboard="0"
     inkscape:deskcolor="#505050"
     showgrid="false"
     inkscape:zoom="0.056875"
     inkscape:cx="1221.978"
     inkscape:cy="-237.36264"
     inkscape:window-width="1366"
     inkscape:window-height="705"
     inkscape:window-x="-8"
     inkscape:window-y="-8"
     inkscape:window-maximized="1"
     inkscape:current-layer="g1" />
  <g
     inkscape:groupmode="layer"
     inkscape:label="Image"
     id="g1">
    <path
       id="path2"
       style="fill:#00afef;fill-opacity:1;stroke-width:1.01937"
       d="m 1001.0649,0 c -1.07515,0 -74.27135,72.6987 -177.55665,176.3496 -96.6506,96.9927 -175.2075,176.3515 -174.5684,176.3515 0.639,0 6.3805,-2.5812 12.7578,-5.7363 66.1753,-32.7393 137.1562,-57.6192 191.5137,-67.127 19.08309,-3.3378 22.1132,-3.7784 27.01369,-3.9355 l 5.0957,-0.1641 v 65.7188 65.7207 l -6.1153,1.6914 c -3.3638,0.9313 -12.0806,3.1135 -19.3691,4.8496 -62.7532,14.948 -128.2032,42.8144 -182.9766,77.9043 -96.8849,62.0677 -173.3391,149.4798 -222.6386,254.5449 -17.1385,36.5249 -34.5635,88.4754 -41.8848,124.8809 -0.9019,4.4853 -1.8757,8.9583 -2.1641,9.9394 -0.4923,1.6753 -4.5105,1.7816 -65.9492,1.7676 -36.2192,-0.01 -66.0619,-0.418 -66.8515,-0.918 -1.7937,-1.1356 -1.1877,-6.851 2.9882,-28.1289 3.7679,-19.1985 12.5226,-53.5929 16.2129,-63.6992 0.5118,-1.4016 2.6323,-8.0534 4.7129,-14.7812 4.2581,-13.7697 17.9406,-51.0647 24.1211,-65.7481 8.4697,-20.1219 13.0498,-30.4726 19.1699,-43.3242 8.2672,-17.36 10.2287,-21.916 9.4375,-21.916 -0.678,0 -3.5869,2.8341 -71.0683,69.2578 C 204.45894,790.7544 4.45e-4,995.9076 4.45e-4,997.4042 c 0,0.8302 43.8783,45.2185 97.5078,98.6387 53.629295,53.4202 133.527795,133.1354 177.552695,177.1465 44.025,44.0112 79.7919,79.5627 79.4824,79.002 -0.3094,-0.5606 -1.9461,-4.0023 -3.6386,-7.6465 -1.6925,-3.6443 -4.9131,-10.5236 -7.1563,-15.289 -28.3226,-60.168 -48.617,-116.8291 -59.8027,-166.9629 -4.4555,-19.9691 -7.6973,-38.7785 -7.6973,-44.6661 v -4.4922 l 66.5137,0.2617 66.5137,0.2618 1.3437,6.1172 c 16.6814,75.9231 41.8133,137.8107 81.752,201.3242 49.43121,78.6095 122.5235,149.218 202.8379,195.9414 34.3342,19.9742 55.2669,30.0439 92.2519,44.3809 21.6341,8.3865 49.7696,17.4194 67.2793,21.6015 25.6696,6.1309 29.2562,7.0536 29.8926,7.6895 0.8798,0.8793 1.3459,115.7965 0.5098,125.6484 l -0.62699,7.3887 h -4.2227 c -8.72321,0 -46.42011,-7.6292 -70.40621,-14.25 -48.17179,-13.2966 -88.83219,-28.8925 -148.82619,-57.084 -9.83041,-4.6195 -13.76171,-6.2708 -13.76171,-5.7793 0,0.1691 6.9099,7.1527 15.35551,15.5195 14.8809,14.7421 87.9026,87.9762 255.8066,256.5489 44.53459,44.7119 81.49109,81.2949 82.12695,81.2949 1.1609,0 203.8973,-201.9359 300.4551,-299.2695 44.6296,-44.9882 53.5343,-54.4512 51.2384,-54.4512 -0.2309,0 -6.3102,2.7983 -13.5079,6.2187 -54.3492,25.8273 -114.859,48.1465 -163.9531,60.4766 -18.1867,4.5677 -49.6197,10.7754 -54.5625,10.7754 -3.4357,0 -3.8551,-0.3022 -4.4317,-3.1856 -0.3504,-1.752 -0.6386,-31.3276 -0.6386,-65.7246 v -62.541 l 2.2949,-1.4355 c 1.2614,-0.7899 6.8798,-2.4537 12.4863,-3.6973 5.6065,-1.2436 11.3406,-2.665 12.7422,-3.1582 1.4016,-0.4932 5.3002,-1.5633 8.6641,-2.3789 26.0459,-6.3147 70.5562,-21.9816 93.0566,-32.7539 5.2071,-2.4929 9.7039,-4.5332 9.9922,-4.5332 0.7221,0 28.1813,-13.787 35.0762,-17.6113 11.1485,-6.1834 12.9366,-7.2221 25.4843,-14.8028 11.2719,-6.8099 22.7735,-14.3758 39.172,-25.7675 19.8721,-13.8052 52.1512,-41.2855 72.9589,-62.1153 48.441,-48.492 82.9274,-96.5875 113.6543,-158.5 22.0363,-44.4013 36.8703,-85.7477 47.9082,-133.5371 2.072,-8.9705 4.2381,-16.8832 4.8145,-17.584 0.8182,-0.9949 15.2087,-1.2754 65.6543,-1.2754 50.954,0 64.6252,0.2704 64.6992,1.2754 0.8419,11.3476 -9.5687,61.4156 -19.0234,91.4883 -14.1083,44.8753 -27.3952,78.1411 -53.8789,134.8984 -2.5732,5.5144 -4.2271,9.8718 -3.6758,9.6836 1.8353,-0.6266 352.7324,-351.887 352.7324,-353.0977 0,-2.7253 -346.9455,-348.7789 -353.3848,-352.4765 -1.2005,-0.6893 -1.276,-0.4967 -0.4023,1.0195 1.6704,2.8991 16.0264,34.1655 21.6855,47.2305 16.5804,38.2782 33.9017,86.9114 41.9336,117.7363 0.8766,3.3639 2.5391,9.6857 3.6934,14.0488 2.8454,10.7558 9.107,42.2981 9.8965,49.8516 0.4895,4.683 0.3042,6.3339 -0.7891,7.0137 -0.7863,0.4889 -30.196,0.9096 -65.3535,0.9336 -60.0444,0.042 -63.9794,-0.064 -64.8613,-1.752 -0.5165,-0.9882 -1.9604,-6.3857 -3.209,-11.9922 -20.8485,-93.6058 -64.1111,-181.8705 -124.6602,-254.332 -30.4083,-36.3911 -68.7877,-72.6517 -105.6113,-99.7813 -65.8486,-48.5134 -136.268,-81.3574 -216.5957,-101.0195 -13.3791,-3.2748 -24.8472,-6.4759 -25.4844,-7.1133 -0.8472,-0.8477 -1.0738,-18.1868 -0.8379,-64.5625 0.1774,-34.8723 0.568,-64.2542 0.8672,-65.2929 0.4782,-1.6606 1.2386,-1.807 6.3027,-1.211 36.4344,4.2879 103.3087,23.138 151.5293,42.7129 35.5391,14.4268 31.8882,12.827 64.2207,28.166 6.1672,2.9259 12.0151,5.7459 12.9962,6.2676 5.0789,2.7003 -0.783,-3.9032 -28.4591,-32.0625 C 1249.2359,245.2443 1002.7449,0 1001.0649,0 Z m -0.045,640.2304 c 29.2614,0 38.3046,0.561 55.8105,3.461 6.9438,1.1502 9.9887,1.5918 11.4668,1.664 0.8409,0.041 2.2176,0.3295 3.0586,0.6406 1.5024,0.5559 2.0215,0.6781 7.1348,1.668 1.4017,0.2713 3.5804,0.7574 4.8418,1.082 5.1943,1.3365 7.0283,1.7564 9.9395,2.2754 1.6819,0.2999 3.5596,0.9578 4.1718,1.461 0.6123,0.503 1.3353,0.6921 1.6075,0.4199 0.7156,-0.7155 23.9255,7.0568 37.0351,12.4023 72.4339,29.5355 133.0228,81.5374 173.8027,149.17 7.9329,13.1565 20.175,37.9772 25.1387,50.9687 2.035,5.3262 4.5354,11.5748 5.5567,13.8867 1.0212,2.312 2.3428,6.3689 2.9355,9.0137 0.5927,2.6449 1.6819,6.2562 2.4219,8.0273 0.74,1.7709 1.3866,3.4502 1.4375,3.7305 0.051,0.2804 0.2948,1.1981 0.541,2.0391 0.8132,2.7789 3.8738,15.7664 4.1387,17.5625 0.1432,0.9697 0.5757,2.0778 0.9609,2.4629 0.3851,0.3852 0.7149,2.1151 0.7325,3.8437 0.017,1.7287 0.981,8.1902 2.1406,14.3574 3.561,18.9413 4.0879,26.5001 4.0879,58.6133 0,29.2014 -0.5866,39.3242 -3.0703,53.0059 -0.5598,3.0836 -1.7577,10.3874 -2.6621,16.2304 -0.9042,5.8432 -1.8754,10.9996 -2.1582,11.4571 -0.6663,1.0782 -3.0215,10.4072 -3.9473,15.6367 -0.3969,2.2426 -1.0674,4.5351 -1.4902,5.0957 -0.4228,0.5607 -1.5787,3.9815 -2.5684,7.5996 -2.5026,9.1499 -11.4731,31.9225 -18.1036,45.959 -47.6593,100.8945 -142.1252,175.104 -251.0586,197.2207 -9.5319,1.9353 -23.0651,4.232 -30.0722,5.1055 -12.0035,1.4962 -59.30776,2.8503 -67.27545,1.9258 -1.96231,-0.2277 -8.8435,-0.9114 -15.29101,-1.5195 -15.0134,-1.4161 -31.88199,-4.3025 -47.6114,-8.1465 -101.5776,-24.8243 -188.3588,-94.035 -235.0918,-187.4922 -26.0358,-52.0671 -37.8254,-102.688 -37.748,-162.0782 0.045,-34.5216 2.8441,-57.8386 10.709,-89.1953 25.668,-102.3369 98.3939,-190.8195 193.9648,-235.9863 17.2231,-8.1396 44.7,-18.5695 52.0664,-19.7656 0.5606,-0.091 1.4819,-0.4568 2.0469,-0.8106 0.5648,-0.3539 2.8593,-1.0069 5.0977,-1.4531 5.3702,-1.0702 5.5546,-1.1159 5.8515,-1.416 0.1402,-0.1416 1.1737,-0.3955 2.295,-0.5645 1.1213,-0.169 3.1842,-0.6102 4.5859,-0.9805 1.4016,-0.3705 3.4666,-0.8244 4.5879,-1.0078 1.1213,-0.1832 2.039,-0.4284 2.039,-0.5468 0,-0.3106 5.7063,-1.3082 13.7618,-2.4043 1.4016,-0.1908 2.7783,-0.4769 3.0586,-0.6368 0.2803,-0.1599 1.655,-0.4462 3.0566,-0.6367 1.4017,-0.1905 4.3844,-0.6024 6.6269,-0.914 14.4157,-2.0026 23.1413,-2.4317 49.43956,-2.4317 z" />
    <path
       style="fill:#000000;stroke-width:1.01937"
       d="M 918.46092,1918.7054 C 750.55674,1750.1326 677.53533,1676.8995 662.6545,1662.1574 c -8.44567,-8.3669 -15.35583,-15.351 -15.35583,-15.5201 0,-0.4915 3.93094,1.159 13.76143,5.7785 59.99399,28.1915 100.65597,43.788 148.82773,57.0846 23.98614,6.6208 61.68145,14.2509 70.40459,14.2509 h 4.22334 l 0.62722,-7.3904 c 0.83618,-9.8519 0.36911,-124.7676 -0.51071,-125.6469 -0.63639,-0.6359 -4.22263,-1.5584 -29.89225,-7.6893 -17.50968,-4.1821 -45.64414,-13.2155 -67.27829,-21.602 -36.98501,-14.337 -57.91845,-24.4079 -92.2528,-44.3821 -80.31434,-46.7235 -153.40686,-117.3301 -202.83821,-195.9397 -39.93871,-63.5136 -65.06925,-125.402 -81.75065,-201.3252 l -1.34382,-6.1162 -66.51376,-0.2622 -66.51376,-0.2622 v 4.4932 c 0,5.8876 3.24084,24.6956 7.69631,44.6647 11.18571,50.1339 31.48077,106.7949 59.8034,166.9629 2.24326,4.7655 5.46344,11.6462 7.15593,15.2905 1.69251,3.6442 3.33047,7.0846 3.63991,7.6452 0.30945,0.5607 -35.45781,-34.9898 -79.48281,-79.001 -44.025,-44.0112 -123.92405,-123.7278 -177.553458,-177.148 C 43.878603,1042.6223 0,998.23568 0,997.4055 0,995.90887 204.45964,790.75545 282.94655,713.49898 c 67.4815,-66.42375 70.39025,-69.25841 71.0682,-69.25841 0.79118,0 -1.17102,4.55647 -9.43816,21.91641 -6.12014,12.85158 -10.69959,23.20123 -19.16929,43.32314 -6.18051,14.68339 -19.86351,51.97961 -24.12168,65.74924 -2.08053,6.72783 -4.20154,13.3792 -4.71336,14.78083 -3.69034,10.10632 -12.44395,44.50102 -16.21182,63.6996 -4.17595,21.27788 -4.78339,26.99286 -2.98968,28.12854 0.78964,0.5 30.6328,0.91009 66.85208,0.91875 61.43867,0.0143 65.45765,-0.0928 65.94994,-1.76829 0.28833,-0.98114 1.26223,-5.45362 2.16421,-9.93884 7.32126,-36.40551 24.74483,-88.35658 41.88335,-124.88145 49.29963,-105.06524 125.75506,-192.47696 222.63997,-254.54485 54.77349,-35.08981 120.22324,-62.95545 182.97655,-77.90347 7.28848,-1.73608 16.00408,-3.91845 19.36799,-4.84974 l 6.11621,-1.69307 v -65.71916 -65.71917 l -5.09684,0.16351 c -4.90041,0.15718 -7.93017,0.59867 -27.01325,3.93649 -54.3576,9.50775 -125.33802,34.38655 -191.51336,67.12589 -6.37726,3.15505 -12.11792,5.7364 -12.757,5.7364 -0.63909,0 77.91592,-79.3578 174.56669,-176.35067 C 926.79262,72.699694 999.98997,0 1001.0651,0 c 1.68,0 248.1715,245.24393 322.4127,320.78094 27.6761,28.15922 33.538,34.7634 28.459,32.0631 -0.9811,-0.52172 -6.8298,-3.34231 -12.9969,-6.2682 -32.3326,-15.33904 -28.6811,-13.73772 -64.2202,-28.16453 -48.2207,-19.57492 -115.0947,-38.42558 -151.5291,-42.71355 -5.0641,-0.59593 -5.8251,-0.44975 -6.3033,1.2108 -0.2992,1.03874 -0.6891,30.42059 -0.8665,65.29297 -0.2359,46.37564 -0.011,63.7157 0.8362,64.5634 0.6372,0.63741 12.1051,3.83843 25.4842,7.11326 80.3278,19.66208 150.7475,52.5053 216.5961,101.01885 36.8236,27.12957 75.2035,63.39073 105.6119,99.78186 60.5491,72.46157 103.8118,160.7264 124.6603,254.33231 1.2486,5.60653 2.6928,11.00225 3.2093,11.99052 0.8819,1.68777 4.8169,1.79399 64.8614,1.75199 35.1575,-0.0245 64.5661,-0.44475 65.3524,-0.93364 1.0933,-0.67981 1.2791,-2.33007 0.7896,-7.01305 -0.7895,-7.55351 -7.0515,-39.0948 -9.8969,-49.85066 -1.1543,-4.3631 -2.8158,-10.68522 -3.6924,-14.04913 -8.0319,-30.82498 -25.3537,-79.45872 -41.9341,-117.73701 -5.6592,-13.06503 -20.0151,-44.332 -21.6855,-47.23109 -0.8737,-1.5162 -0.7977,-1.70866 0.4028,-1.01936 6.4393,3.69765 353.3839,349.7526 353.3839,352.47788 0,1.2107 -350.8973,352.47084 -352.7326,353.09744 -0.5513,0.1882 1.1028,-4.1696 3.676,-9.684 26.4838,-56.7574 39.7704,-90.0235 53.8787,-134.8988 9.4547,-30.0727 19.8656,-80.1406 19.0237,-91.4882 -0.074,-1.005 -13.7455,-1.2743 -64.6996,-1.2743 -50.4456,0 -64.8347,0.2794 -65.6529,1.2743 -0.5764,0.7008 -2.7431,8.6136 -4.8151,17.5841 -11.038,47.7894 -25.8715,89.1358 -47.9078,133.5372 -30.727,61.9125 -65.2142,110.0071 -113.6552,158.4992 -20.8078,20.8298 -53.0855,48.3111 -72.9577,62.1163 -16.3984,11.3918 -27.9009,18.9583 -39.1728,25.7682 -12.5478,7.5807 -14.3357,8.6192 -25.4842,14.8026 -6.8949,3.8243 -34.3548,17.6108 -35.0769,17.6108 -0.2883,0 -4.7847,2.0398 -9.9918,4.5327 -22.5004,10.7723 -67.0097,26.4386 -93.0557,32.7533 -3.3639,0.8156 -7.263,1.8866 -8.6646,2.3798 -1.4016,0.4932 -7.1356,1.9143 -12.7421,3.1579 -5.6065,1.2436 -11.2258,2.9074 -12.4872,3.6973 l -2.2936,1.4363 v 62.5403 c 0,34.397 0.2867,63.9736 0.6371,65.7256 0.5766,2.8834 0.9971,3.1856 4.4328,3.1856 4.9428,0 36.3764,-6.2076 54.5631,-10.7753 49.0942,-12.3301 109.6038,-34.6505 163.9531,-60.4778 7.1977,-3.4204 13.2757,-6.2189 13.5066,-6.2189 2.2959,0 -6.6084,9.4627 -51.238,54.4509 C 1204.4854,1798.0639 1001.7501,2000 1000.5892,2000 c -0.63593,0 -37.59362,-36.5826 -82.12828,-81.2946 z m 234.25308,-87.3869 c 69.1353,-68.9734 129.8281,-129.8538 134.8726,-135.2899 l 9.172,-9.8835 -8.9807,3.6338 c -45.0696,18.2366 -98.1453,34.6898 -137.5552,42.6415 -18.8778,3.809 -43.4103,7.1458 -45.7984,6.2293 -1.2802,-0.4912 -1.4453,-11.2913 -1.2195,-79.7564 0.2289,-69.4609 0.4489,-79.2197 1.7901,-79.4432 0.841,-0.1403 2.9052,-0.5412 4.5872,-0.8911 1.6819,-0.3499 4.4342,-0.8455 6.1162,-1.1015 1.6819,-0.2559 4.0902,-0.7014 5.3516,-0.9899 3.4272,-0.784 6.6363,-1.5072 8.9195,-2.0099 1.1213,-0.247 3.0709,-0.7018 4.3323,-1.0109 1.2615,-0.3091 3.2476,-0.7721 4.4138,-1.0289 1.166,-0.2566 2.9643,-0.7347 3.996,-1.0621 1.0317,-0.3275 2.83,-0.8055 3.996,-1.0622 1.1662,-0.2568 3.0377,-0.6963 4.159,-0.9766 3.2279,-0.8069 6.4961,-1.6166 8.1549,-2.0203 0.841,-0.2047 1.5291,-0.4423 1.5291,-0.5281 0,-0.163 1.6492,-0.6204 5.0968,-1.4137 1.1213,-0.258 2.1534,-0.5041 2.2936,-0.5471 0.1401,-0.043 0.4758,-0.098 0.746,-0.1222 0.2702,-0.024 2.105,-0.7186 4.0774,-1.5428 1.9725,-0.8241 3.5864,-1.2067 3.5864,-0.8502 0,0.3565 0.688,0.077 1.529,-0.6208 0.841,-0.698 1.5291,-0.9274 1.5291,-0.5097 0,0.4176 0.688,0.1883 1.529,-0.5097 0.841,-0.698 1.5291,-0.9273 1.5291,-0.5097 0,0.4176 0.688,0.1883 1.529,-0.5097 0.841,-0.6979 1.5291,-0.9273 1.5291,-0.5097 0,0.4177 0.688,0.1883 1.529,-0.5096 0.841,-0.698 1.5291,-0.9274 1.5291,-0.5097 0,0.4176 0.6881,0.1883 1.529,-0.5097 0.841,-0.698 1.5291,-0.9273 1.5291,-0.5097 0,0.4176 0.6881,0.1883 1.529,-0.5097 0.841,-0.6979 1.5291,-0.9273 1.5291,-0.5097 0,0.4177 0.7586,0.1298 1.6857,-0.6397 0.9271,-0.7694 1.7299,-1.2548 1.7839,-1.0784 0.1036,0.3384 1.8188,-0.1267 5.195,-1.409 1.1213,-0.4259 2.3828,-0.8712 2.8033,-0.9897 0.4205,-0.1185 0.9939,-0.3302 1.2742,-0.4703 0.2803,-0.1402 0.8537,-0.3285 1.2742,-0.4184 0.4205,-0.09 1.7966,-0.7369 3.0581,-1.4375 1.2615,-0.7007 2.2936,-1.0179 2.2936,-0.7049 0,0.313 1.1468,-0.1823 2.5484,-1.1008 1.4016,-0.9183 2.5484,-1.3771 2.5484,-1.0194 0,0.3578 1.1468,-0.1009 2.5484,-1.0193 1.4017,-0.9184 2.5485,-1.3771 2.5485,-1.0194 0,0.3578 1.1467,-0.1009 2.5484,-1.0194 1.4016,-0.9183 2.5484,-1.3502 2.5484,-0.9597 0,0.3906 1.6055,-0.2822 3.5678,-1.4949 1.9623,-1.2127 3.5678,-1.9189 3.5678,-1.5692 0,0.3496 1.9886,-0.5296 4.4189,-1.9539 2.4305,-1.4243 4.7241,-2.2846 5.0969,-1.9119 0.3729,0.3729 0.6779,0.1428 0.6779,-0.5113 0,-0.6541 0.344,-1.0809 0.7645,-0.9485 0.7965,0.2508 29.4502,-13.8414 31.4917,-15.488 0.6411,-0.5171 1.4439,-0.6618 1.7839,-0.3218 0.3402,0.3401 0.6184,0.1286 0.6184,-0.47 0,-0.5986 2.0625,-1.9365 4.5834,-2.9731 2.5207,-1.0367 4.585,-2.1733 4.5871,-2.5258 0,-0.3525 1.4946,-1.2505 3.3167,-1.9956 1.8221,-0.7452 3.9191,-1.9476 4.66,-2.6722 0.7408,-0.7244 2.0023,-1.3172 2.8032,-1.3172 0.8009,0 1.4563,-0.45 1.4563,-0.9999 0,-0.5501 1.1468,-1.2879 2.5484,-1.6397 1.4016,-0.3517 2.5484,-1.0176 2.5484,-1.4797 0,-0.4621 0.9969,-1.1565 2.2152,-1.5432 1.2184,-0.3867 3.0745,-1.5037 4.1247,-2.4821 1.0502,-0.9783 3.5959,-2.6425 5.6571,-3.6979 2.0611,-1.0555 4.6493,-2.7217 5.7516,-3.7029 1.1021,-0.9811 2.3708,-1.7839 2.8193,-1.7839 0.4485,0 1.6236,-0.6763 2.6111,-1.503 0.9876,-0.8267 8.4469,-6.3168 16.5764,-12.2002 8.1294,-5.8834 16.3863,-12.0296 18.3486,-13.6581 1.9623,-1.6286 7.9071,-6.5743 13.2109,-10.9904 60.9518,-50.7523 112.3985,-115.5232 148.8272,-187.3724 23.707,-46.7575 41.5955,-98.4944 51.5924,-149.2143 l 2.7496,-13.9505 h 77.7922 c 50.5083,0 78.1465,0.3575 78.8025,1.0194 0.9347,0.9431 0.1923,8.3305 -2.9197,29.052 -6.1468,40.9276 -20.8154,92.179 -40.7328,142.3178 l -7.7398,19.484 147.5676,-146.814 c 81.1621,-80.7477 147.5675,-147.22256 147.5675,-147.72174 0,-1.13843 -225.1295,-226.92304 -266.7587,-267.53486 l -30.775,-30.02294 4.6523,11.52712 c 9.8016,24.28593 25.0751,68.00978 30.0205,85.94097 8.8353,32.03507 13.5204,52.40041 16.181,70.3364 0.4991,3.36391 1.3562,8.63914 1.9047,11.72273 0.5486,3.08359 1.0309,7.7109 1.0719,10.28277 l 0.074,4.67625 -41.4515,0.67543 c -22.7983,0.37146 -58.1106,0.67543 -78.4718,0.67543 h -37.0205 l -0.5244,-2.29357 c -0.2884,-1.26147 -1.9097,-8.94496 -3.6029,-17.07442 -14.4254,-69.26126 -43.5829,-139.17492 -83.3251,-199.79612 -85.3011,-130.11499 -219.8392,-222.53905 -370.2694,-254.36514 -9.2581,-1.95872 -17.9245,-3.80836 -19.2588,-4.1104 l -2.4259,-0.54913 0.7561,-78.1839 c 0.5108,-52.81345 1.1042,-78.40234 1.8288,-78.85718 0.5899,-0.37024 2.4881,-0.49083 4.2182,-0.26779 55.0459,7.0949 108.3687,21.61376 172.1058,46.86116 8.8303,3.49786 16.0551,6.08216 16.0551,5.74292 0,-1.73089 -293.6911,-294.514988 -296.4626,-295.547098 -0.3768,-0.140367 -67.19855,66.265545 -148.49253,147.568608 l -147.80744,147.82375 13.25178,-5.4631 c 45.44669,-18.73548 97.84281,-34.60653 138.12436,-41.83864 20.69429,-3.71549 39.85026,-6.04842 40.9158,-4.98297 0.49766,0.49775 0.77574,35.49857 0.62987,79.2793 l -0.26126,78.38808 -6.6259,1.29643 c -81.36422,15.91937 -156.72303,47.46748 -224.26095,93.8843 -64.67563,44.44964 -123.74316,106.0893 -165.29724,172.49511 -39.80166,63.6054 -65.21225,128.17268 -80.40069,204.2948 l -1.20271,6.02783 -79.07911,-0.69113 c -43.49351,-0.38002 -79.24593,-0.8579 -79.44983,-1.06178 -0.64025,-0.64026 2.68419,-25.45453 5.30306,-39.58308 7.3067,-39.41875 23.71223,-93.44974 42.93817,-141.41508 l 5.49652,-13.71285 -13.05733,12.69348 C 271.56554,742.09307 17.329256,996.80612 17.329256,997.70877 c 0,0.83883 70.769755,71.56553 259.216884,259.05913 35.73562,35.5548 36.43072,36.1771 33.84382,30.2965 -12.96462,-29.4711 -30.58988,-83.2886 -38.615,-117.908 -6.90949,-29.8069 -12.24624,-66.7255 -9.85875,-68.201 0.69317,-0.4285 36.42633,-0.5645 79.40701,-0.3023 l 78.14671,0.4766 3.6936,17.4779 c 7.51248,35.5489 18.94654,72.7868 31.81532,103.6146 8.60411,20.6116 7.75896,18.7867 19.59148,42.3038 30.37303,60.3663 69.84502,113.3599 119.71769,160.7287 17.70567,16.8168 26.84023,24.8568 40.26855,35.4436 4.48522,3.5361 8.30785,6.8301 8.49473,7.32 0.1869,0.4901 0.87497,0.8931 1.52906,0.8957 0.65409,0 2.65521,1.3788 4.44693,3.0581 1.79171,1.6794 3.53148,3.0534 3.86616,3.0534 0.90121,0 12.18796,8.3998 12.58398,9.3652 0.18685,0.4557 0.9896,0.8285 1.7839,0.8285 0.79418,0 1.44403,0.3467 1.44403,0.7705 0,0.4238 1.29001,1.3415 2.86667,2.0395 1.57666,0.6978 3.75555,2.0712 4.842,3.052 1.08644,0.9808 3.2368,2.4341 4.77859,3.2297 1.54179,0.7955 2.80326,1.7779 2.80326,2.1831 0,0.4051 1.14679,1.0243 2.54842,1.3761 1.40163,0.3518 2.54842,1.0896 2.54842,1.6397 0,0.5499 0.65535,0.9999 1.45627,0.9999 0.80092,0 2.06239,0.5801 2.80326,1.2892 0.74088,0.7091 3.52589,2.4285 6.18899,3.8209 2.6631,1.3924 4.842,2.8764 4.842,3.2979 0,0.4214 0.65535,0.7663 1.45627,0.7663 0.80092,0 2.16076,0.7045 3.02171,1.5654 0.86096,0.8611 1.81601,1.5398 2.12223,1.5085 1.06075,-0.1088 7.16473,3.3319 7.91019,4.4587 0.42976,0.6496 0.76228,0.6976 0.78012,0.1127 0.0204,-0.6797 0.28094,-0.6797 0.78023,0 0.74261,1.0108 33.91906,17.7537 34.89765,17.6115 0.28033,-0.041 2.34455,0.8621 4.58716,2.0061 2.24261,1.1441 4.4264,2.1201 4.8527,2.1688 0.4264,0.049 2.14179,0.7953 3.81193,1.659 1.67023,0.8637 3.15626,1.4674 3.30234,1.3415 0.14597,-0.1258 1.64159,0.4971 3.32355,1.3843 4.43272,2.338 8.97676,4.1546 12.23241,4.8902 0.56066,0.1267 1.9368,0.7422 3.05811,1.3679 1.1213,0.6257 2.26809,1.1934 2.54842,1.2617 0.28032,0.068 1.31243,0.4286 2.29357,0.8007 0.98115,0.3721 2.58665,0.9808 3.56779,1.3529 0.98114,0.3721 2.12793,0.7735 2.54842,0.892 0.42049,0.1185 0.99389,0.3301 1.27421,0.4703 0.28033,0.1402 0.9684,0.3695 1.52905,0.5097 0.56066,0.1401 1.24873,0.3695 1.52906,0.5097 0.28032,0.1401 0.9684,0.3695 1.52905,0.5096 0.56065,0.1402 1.24872,0.3696 1.52905,0.5097 0.28033,0.1402 0.85372,0.3507 1.27421,0.4677 0.42049,0.117 2.08858,0.7603 3.70683,1.4293 1.61815,0.669 3.91172,1.3991 5.09684,1.6227 1.18502,0.2234 2.26922,0.4404 2.40938,0.4821 0.14016,0.042 0.41376,-0.039 0.60795,-0.1791 0.19409,-0.1402 1.11152,0.3747 2.03874,1.1441 0.92711,0.7695 1.68562,1.1074 1.68562,0.7509 0,-0.3565 1.60551,0.022 3.56779,0.8426 1.96228,0.8198 3.56779,1.2285 3.56779,0.9081 0,-0.3204 0.68807,-0.011 1.52905,0.6866 0.84098,0.6979 1.52905,0.9673 1.52905,0.5986 0,-0.3687 0.84649,-0.2174 1.88104,0.3363 1.76799,0.9462 3.20765,1.3268 10.09654,2.6696 1.54179,0.3005 4.40876,1.0836 6.37105,1.7403 1.96228,0.6568 3.79714,1.2344 4.07747,1.2836 1.21988,0.2141 8.758,1.8801 9.68399,2.1403 0.98971,0.2781 3.98033,0.9714 8.15495,1.8908 1.1213,0.247 3.18552,0.7066 4.58715,1.0214 2.59593,0.5832 7.03283,1.4583 10.70337,2.1112 1.1213,0.1994 2.95617,0.5472 4.07747,0.7728 2.01519,0.4054 2.04179,1.3316 2.2998,80.0786 l 0.26106,79.6684 h -3.52172 c -7.84628,0 -34.25779,-3.9937 -54.5947,-8.2553 -31.76167,-6.6555 -81.91233,-22.2328 -117.10683,-36.3744 l -17.71855,-7.1194 57.98359,57.9849 c 31.89093,31.8917 98.34414,98.4664 147.6737,147.9439 l 89.69011,89.9589 13.266,-13.2279 c 7.2963,-7.2753 69.8314,-69.6607 138.9668,-138.634 z M 977.57386,1358.2181 c -1.96228,-0.2277 -8.84301,-0.9116 -15.29052,-1.5197 -15.01335,-1.4161 -31.88134,-4.3023 -47.6108,-8.1463 -101.57768,-24.8243 -188.35913,-94.0347 -235.09205,-187.492 -26.03595,-52.0671 -37.82592,-102.6893 -37.74856,-162.07947 0.0449,-34.52171 2.84447,-57.83802 10.70931,-89.1947 25.668,-102.337 98.3947,-190.81886 193.96575,-235.98573 17.22304,-8.13965 44.69949,-18.57135 52.06585,-19.76738 0.56066,-0.0907 1.48166,-0.45504 2.04659,-0.80886 0.56483,-0.35383 2.85841,-1.00826 5.09684,-1.45444 5.37023,-1.07023 5.55657,-1.11529 5.85352,-1.41539 0.14016,-0.14159 1.17227,-0.39572 2.29357,-0.56473 1.12131,-0.16901 3.18553,-0.6103 4.58716,-0.98063 1.40163,-0.37044 3.46585,-0.82345 4.58716,-1.00683 1.1213,-0.18329 2.03873,-0.43007 2.03873,-0.54842 0,-0.3106 5.70591,-1.30714 13.76147,-2.40327 1.40163,-0.19072 2.77778,-0.47757 3.0581,-0.63741 0.28033,-0.15993 1.65648,-0.44658 3.05811,-0.637 1.40163,-0.19052 4.38328,-0.60122 6.62589,-0.91284 14.4157,-2.00265 23.14108,-2.43191 49.43932,-2.43191 29.2614,0 38.3045,0.56076 55.8105,3.46076 6.9438,1.15025 9.9898,1.59235 11.4679,1.66452 0.8409,0.0408 2.2171,0.32926 3.0581,0.64037 1.5024,0.55586 2.0222,0.67727 7.1355,1.66717 1.4017,0.27126 3.5806,0.75882 4.842,1.08339 5.1943,1.33649 7.0277,1.75617 9.9389,2.27523 1.6819,0.2999 3.559,0.95688 4.1712,1.46004 0.6123,0.50306 1.3359,0.69195 1.6081,0.41977 0.7156,-0.71559 23.9245,7.05689 37.0341,12.40235 72.434,29.53547 133.0236,81.53772 173.8036,149.17034 7.9329,13.15657 20.1747,37.97686 25.1384,50.9684 2.035,5.32619 4.5356,11.57563 5.5569,13.88756 1.0212,2.31203 2.3418,6.36758 2.9345,9.01244 0.5927,2.64485 1.6831,6.25779 2.4231,8.02884 0.74,1.77095 1.3872,3.44934 1.4381,3.72967 0.051,0.28032 0.294,1.19775 0.5402,2.03873 0.8132,2.7789 3.8745,15.76728 4.1394,17.56341 0.1432,0.96972 0.5754,2.07828 0.9606,2.4634 0.3851,0.38522 0.7147,2.11478 0.7323,3.84343 0.017,1.72864 0.9807,8.18889 2.1403,14.35606 3.561,18.94129 4.0882,26.50031 4.0882,58.61366 0,29.20137 -0.5863,39.32547 -3.07,53.00717 -0.5598,3.0836 -1.7577,10.3872 -2.6621,16.2303 -0.9042,5.8432 -1.8755,10.9982 -2.1583,11.4557 -0.6663,1.0782 -3.0212,10.4076 -3.947,15.6371 -0.3969,2.2426 -1.0677,4.5362 -1.4905,5.0968 -0.4228,0.5607 -1.5785,3.9797 -2.5682,7.5978 -2.5026,9.1499 -11.4732,31.9235 -18.1037,45.9601 -47.6594,100.8946 -142.1263,175.103 -251.0597,197.2198 -9.5321,1.9353 -23.0642,4.2334 -30.0713,5.1069 -12.0035,1.4962 -59.30885,2.8503 -67.27654,1.9258 z m 66.76864,-15.1241 c 27.2642,-3.5928 50.3307,-9.0508 74.4139,-17.6081 11.3597,-4.0364 13.5955,-4.9986 32.9078,-14.1639 82.7158,-39.2552 147.8152,-112.9228 178.2758,-201.7399 7.9048,-23.049 14.6146,-56.412 16.7085,-83.0785 1.4827,-18.8834 0.7399,-53.10013 -1.5411,-70.98413 -9.8274,-77.0526 -44.5288,-147.6211 -99.4333,-202.20652 -52.9705,-52.66259 -118.3637,-85.95383 -190.1185,-96.78818 -24.4944,-3.69847 -33.5332,-4.40245 -56.57501,-4.40642 -63.67441,-0.0112 -123.77727,16.8318 -178.3894,49.99011 -75.99031,46.13843 -131.89633,121.79939 -155.33618,210.22589 -7.61835,28.74017 -10.10796,50.11071 -10.15332,87.15597 -0.0387,31.86028 0.64047,39.97538 5.54812,66.25888 17.59979,94.2589 78.36157,180.9241 161.62283,230.5247 44.3318,26.4095 90.91407,42.1123 140.0107,47.1976 5.88685,0.6096 12.30887,1.2869 14.27116,1.5049 8.60275,0.9556 56.3036,-0.369 67.788,-1.8824 z"
       id="path1" />
  </g>
</svg>
